<svg width="2000" xmlns="http://www.w3.org/2000/svg" height="2000" id="screenshot-0d98dc41-f775-8054-8006-5d63d3226dd9" viewBox="0 0 2000 2000" xmlns:xlink="http://www.w3.org/1999/xlink" fill="none" version="1.1"><g id="shape-0d98dc41-f775-8054-8006-5d63d3226dd9" rx="0" ry="0" style="fill: rgb(0, 0, 0);"><g id="shape-0d98dc41-f775-8054-8006-5d63d323d912"><g class="fills" id="fills-0d98dc41-f775-8054-8006-5d63d323d912"><ellipse cx="1000" cy="1000" rx="1000" ry="1000" transform="matrix(1.000000, 0.000000, 0.000000, 1.000000, 0.000000, 0.000000)" style="fill: rgb(40, 43, 48);"/></g></g><g id="shape-0d98dc41-f775-8054-8006-5d63d3249916"><g class="fills" id="fills-0d98dc41-f775-8054-8006-5d63d3249916"><path d="M565.586,1000.000C565.586,1103.737,601.947,1198.975,662.611,1273.670C678.832,1293.642,677.375,1322.625,659.183,1340.817L475.360,1524.639C454.802,1545.197,421.161,1544.010,402.032,1522.118C280.074,1382.548,206.176,1199.903,206.176,1000.000C206.176,780.794,295.032,582.340,438.680,438.680L692.824,692.824C614.215,771.432,565.586,880.032,565.586,1000.000ZZ" style="fill: rgb(81, 173, 88);"/></g></g><g id="shape-0d98dc41-f775-8054-8006-5d63d324d290"><g class="fills" id="fills-0d98dc41-f775-8054-8006-5d63d324d290"><path d="M1561.320,438.680L1307.176,692.824C1228.567,614.215,1119.968,565.586,1000.000,565.586C880.032,565.586,771.433,614.215,692.824,692.824L438.680,438.680C582.342,295.032,780.794,206.176,1000.000,206.176C1219.206,206.176,1417.658,295.032,1561.320,438.680ZZ" style="fill: rgb(234, 202, 68);"/></g></g><g id="shape-0d98dc41-f775-8054-8006-5d63d325212c"><g class="fills" id="fills-0d98dc41-f775-8054-8006-5d63d325212c"><path d="M1793.824,1000.000C1793.824,1199.904,1719.928,1382.549,1597.968,1522.118C1578.838,1544.010,1545.197,1545.197,1524.640,1524.639L1340.819,1340.817C1322.626,1322.625,1321.170,1293.642,1337.390,1273.670C1398.055,1198.975,1434.414,1103.737,1434.414,1000.000C1434.414,880.032,1385.785,771.433,1307.176,692.824L1561.320,438.680C1704.967,582.340,1793.824,780.794,1793.824,1000.000ZZ" style="fill: rgb(240, 77, 77);"/></g></g><g id="shape-0d98dc41-f775-8054-8006-5d63d325618e"><defs><filter id="filter-render-6" x="-0.06969557645075156" y="-0.06969557645075145" width="1.1626230117184204" height="1.1579766399550366" filterUnits="objectBoundingBox" color-interpolation-filters="sRGB"><feFlood flood-opacity="0" result="BackgroundImageFix"/><feColorMatrix in="SourceAlpha" type="matrix" values="0 0 0 0 0 0 0 0 0 0 0 0 0 0 0 0 0 0 127 0"/><feOffset dx="5" dy="4"/><feGaussianBlur stdDeviation="5"/><feColorMatrix type="matrix" values="0 0 0 0 0 0 0 0 0 0 0 0 0 0 0 0 0 0 0.2 0"/><feBlend mode="normal" in2="BackgroundImageFix" result="filter_0d98dc41-f775-8054-8006-5d6437d8f474"/><feBlend mode="normal" in="SourceGraphic" in2="filter_0d98dc41-f775-8054-8006-5d6437d8f474" result="shape"/></filter><filter id="filter-shadow-render-6" x="-0.06969557645075156" y="-0.06969557645075145" width="1.1626230117184204" height="1.1579766399550366" filterUnits="objectBoundingBox" color-interpolation-filters="sRGB"><feFlood flood-opacity="0" result="BackgroundImageFix"/><feColorMatrix in="SourceAlpha" type="matrix" values="0 0 0 0 0 0 0 0 0 0 0 0 0 0 0 0 0 0 127 0"/><feOffset dx="5" dy="4"/><feGaussianBlur stdDeviation="5"/><feColorMatrix type="matrix" values="0 0 0 0 0 0 0 0 0 0 0 0 0 0 0 0 0 0 0.2 0"/><feBlend mode="normal" in2="BackgroundImageFix" result="filter_0d98dc41-f775-8054-8006-5d6437d8f474"/><feBlend mode="normal" in="SourceGraphic" in2="filter_0d98dc41-f775-8054-8006-5d6437d8f474" result="shape"/></filter></defs><g class="fills" id="fills-0d98dc41-f775-8054-8006-5d63d325618e"><path d="M1112.329,1112.339C1050.295,1174.373,949.696,1174.373,887.661,1112.339C825.627,1050.304,825.627,949.705,887.661,887.671C998.688,776.644,1316.454,593.350,1454.619,516.061C1473.590,505.448,1494.552,526.410,1483.939,545.381C1406.651,683.545,1223.356,1001.312,1112.329,1112.339ZZ" filter="url(#filter-render-6)" style="fill: rgb(255, 255, 255);"/></g></g></g></svg>